<?xml version="1.0" standalone="no"?>
<!DOCTYPE svg PUBLIC "-//W3C//DTD SVG 20010904//EN"
 "http://www.w3.org/TR/2001/REC-SVG-20010904/DTD/svg10.dtd">
<svg version="1.0" xmlns="http://www.w3.org/2000/svg"
 width="64.000000pt" height="64.000000pt" viewBox="0 0 64.000000 64.000000"
 preserveAspectRatio="xMidYMid meet">

<g transform="translate(0.000000,64.000000) scale(0.100000,-0.100000)"
fill="#000000" stroke="none">
<path d="M256 494 c-33 -33 -36 -90 -6 -122 l20 -21 -30 -16 c-26 -13 -34 -14
-49 -3 -17 12 -17 16 -5 33 49 66 -44 146 -106 90 -23 -20 -27 -74 -8 -94 11
-10 7 -17 -16 -33 -28 -21 -56 -72 -56 -103 0 -12 14 -15 74 -15 72 0 74 -1
81 -28 14 -57 26 -62 165 -62 140 0 160 8 160 63 l0 27 80 0 c65 0 80 3 80 15
0 31 -28 82 -56 103 -23 16 -27 23 -16 33 19 20 15 74 -8 94 -62 56 -155 -24
-106 -91 13 -17 12 -20 -7 -31 -17 -9 -28 -8 -50 3 l-28 15 21 26 c27 35 25
75 -6 112 -35 41 -89 43 -128 5z m114 -16 c26 -28 26 -66 -2 -95 -43 -46 -118
-16 -118 47 0 63 77 94 120 48z m-212 -34 c28 -20 28 -58 0 -78 -28 -20 -43
-20 -62 0 -23 22 -20 60 6 78 12 9 25 16 28 16 3 0 16 -7 28 -16z m380 0 c38
-26 20 -94 -25 -94 -25 0 -53 30 -53 56 0 19 32 54 50 54 3 0 16 -7 28 -16z
m-142 -129 c53 -34 84 -131 52 -163 -8 -8 -52 -12 -130 -12 -111 0 -118 1
-132 23 -31 46 11 132 79 163 36 17 96 12 131 -11z m-223 4 l24 -11 -21 -39
-21 -39 -65 2 c-59 3 -65 5 -62 23 10 57 86 91 145 64z m413 -21 c12 -13 24
-32 26 -43 3 -18 -3 -20 -62 -23 l-65 -2 -21 39 -21 39 21 11 c32 17 96 6 122
-21z"/>
</g>
</svg>
